<svg xmlns="http://www.w3.org/2000/svg" width="202.552" height="169.81" viewBox="0 0 53.592 44.929"><style><![CDATA[.B{stroke:#000}.C{stroke-linecap:round}.D{stroke-width:.794}.E{fill:none}.F{stroke-width:1.191}.G{stroke-linejoin:round}.H{stroke-width:1.058}.I{fill-rule:evenodd}.J{stroke-width:.941}.K{stroke-width:1.587}.L{stroke-width:1.397}]]></style><path d="M85.944-77.897c1.19-2.44 2.658-5.153 2.405-6.147-3.15-.432-6.567-.2-10.22.63l2.51-3.742c-1.59-1.84-4.49-2.37-7.578-2.712L77-93.242c-1.967-2.564-2.74-3.633-5.763-5.235l4.905-.613c-.377-2.795-2.11-5.523-3.954-8.073l5.3 1.392c.637-1.373.248-4.455-.622-8.34l3.875 2.005c3.127-5.066 1.836-7.596 2.484-11.085l3.396 4.002c3.634-1.696 6.292-5.03 9.253-7.4-.663 3.682-.055 5.132.3 5.288-1.23 1.85 7.612-1.42 11.532-2.967-.973 1.864-1.614 3.286-1.832 4.143 2.532 2.594 5.84 1.41 8.82 1.988 0 0-4.36 1.2-5.544 2.288 2.57 1.75 6.32 3.4 9.63 3.663l-4.22 1.548c1.1 3.5 3.114 6.16 5.48 8.898l-5.212-1.147c.802 2.773 1.46 5.618 3.23 7.907l-4.3-1.493c-1.363 6.118.112 7.943.63 10.98l-3.387-2.83c-.495-.495-2.774 1.944-4.19 8.954-.156.77-1.973-4.747-2.712-4.6-2.53 1.183-5.233 3.055-8.262 7.477 0 0 .205-2.732-.518-5.055-3.398.02-5.977.458-9.354 3.647z" paint-order="markers fill stroke" class="B E F G"/><circle cx="75.62" cy="-107.99" r=".756"/><circle cx="80.251" cy="-114.793" r=".756"/><circle cx="87.527" cy="-121.975" r=".756"/><circle cx="97.448" cy="-123.109" r=".756"/><circle cx="108.221" cy="-121.03" r=".756"/><circle cx="113.796" cy="-115.549" r=".756"/><circle cx="116.914" cy="-109.029" r=".756"/><circle cx="117.765" cy="-99.958" r=".756"/><circle cx="114.835" cy="-92.871" r=".756"/><circle cx="110.961" cy="-85.5" r=".756"/><circle cx="103.591" cy="-81.153" r=".756"/><circle cx="92.913" cy="-78.602" r=".756"/><circle cx="84.786" cy="-81.626" r=".756"/><circle cx="77.51" cy="-86.351" r=".756"/><circle cx="73.636" cy="-93.721" r=".756"/><circle cx="73.636" cy="-101.375" r=".756"/><g class="B E"><ellipse cx="95.606" cy="-101.543" rx="15.734" ry="15.33" stroke-width="1.541" paint-order="markers fill stroke" class="G"/><path d="M105.575-113.187c1.586 1.337 4.13 3.715 7.175 8.2 0 0-1.482-.38-1.75-.715.236-2.726-5.252-8.32-5.426-7.494z" stroke-width="1.376" paint-order="markers stroke fill"/></g><path d="M89.842-87.154c-2.953-.965-5.15-2.042-9.45-4.82 1.91.005 2.312-.194 2.362-.78 2.087 2.756 4.754 4.194 7.087 5.6z" stroke-width="1.164" stroke-miterlimit="4.9000001" paint-order="markers stroke fill" class="B"/><g class="E B"><path d="M95.014-100.688c-.29-.678-1.14.023-1.228.44-.242 1.132 1.12 1.875 2.19 1.81C97.89-98.55 99-100.4 98.7-102.01c-.427-2.366-3.174-3.67-5.6-3.182-3.246.65-5 3.86-4.218 6.7.985 3.587 5.247 5.502 9.028 4.552 4.58-1.15 7.006-5.762 5.713-9.844-1.523-4.81-7.324-7.344-12.447-5.923-5.915 1.64-9.017 7.667-7.208 12.98 2.055 6.035 9.402 9.19 15.866 7.293 7.252-2.127 11.03-9.573 8.703-16.113-2.584-7.26-11.48-11.036-19.285-8.664" stroke-width="1.193" class="C"/><path d="M89.24-114.202c-7.98 3.434-10.394 9.843-8.04 18.8" class="D"/><path d="M95.014-100.688c.324.79 1.275-.027 1.375-.515.27-1.32-1.254-2.19-2.452-2.115-2.143.133-3.374 2.292-3.048 4.174.478 2.762 3.552 4.285 6.278 3.715 3.633-.76 5.597-4.505 4.72-7.833-1.102-4.187-5.873-6.424-10.105-5.314-5.126 1.343-7.84 6.727-6.394 11.492 1.705 5.616 8.197 8.573 13.93 6.914 6.62-1.915 10.092-8.95 8.067-15.15-2.3-7.046-10.523-10.727-17.758-8.514-4.28 1.31-7.757 4.483-9.418 8.465" stroke-width="1.192" class="C"/><path d="M88.44-100.7c-.8.837-1.527 1.8-3.155.886m13.36-.446c1.132.2 2.332.3 2.457 2.168m-2.694-4.246c.947-.656 1.863-1.437 3.27-.218m-4.465-1.944c.478-1.048.866-2.187 2.698-1.86m-4.874 1.25c-.272-1.12-.672-2.254.97-3.13m-3.046 2.73c-.84-.8-1.793-1.523-.893-3.153m-2.125 4.95c-1.147.1-2.33.324-2.947-1.433m9.94 6.423c.85.778 1.813 1.5.935 3.14m-8.15-.73c-.3 1.1-.517 2.295-2.378 2.255m5.64-.038c.537 1.322 1.24 2.67-.705 3.585m5.75-3.448c.916 1.094 1.997 2.163.426 3.63m2.773-5.18c1.36.433 2.845.756 2.305 2.835" class="D"/><path d="M103.34-98.615c1.355-.335 2.766-.86 3.275 1.68" stroke-width=".863"/><path d="M94.673-98.885c.146 1.142.417 2.315-1.313 3.002" class="D"/><path d="M93.552-100.26c-.822.502-1.638 1.14-2.555-.384" stroke-width=".721"/><path d="M103.597-104.03c1.44-.933 2.868-2.103 4.468.52m-8.422-5.28c.524-1.633.9-3.443 3.8-2.425m-9.677 1.295c-1.088-1.326-2.4-2.615.017-4.498m-6.99 6.983c-1.65-.47-3.47-.778-2.546-3.708" stroke-width="1.041"/><path d="M83.7-100.725c-1.42.784-2.856 1.806-4.074-1.005m8.104 8.96c-.37 1.58-.57 3.33-3.474 2.353" stroke-width="1.01"/><path d="M99.722-90.224c1.272.88 2.77 1.7.65 3.62" stroke-width=".943"/><path d="M108.725-100.96c1.027-.404 2.088-.968 2.588 1.043m-8.246-12.048c.388-1.033.68-2.2 2.508-1.222" stroke-width=".683"/></g><circle cx="101.182" cy="-68.23" r=".756"/><circle cx="121.421" cy="-51.11" r=".756"/><circle cx="104.063" cy="-13.672" r=".756"/><circle cx="75.599" cy="-29.842" r=".756"/><circle cx="73.06" cy="-31.847" r=".756"/><g class="B E"><g class="C"><path d="M115.985-57.507c-.038.862-.923 1.362-1.69 1.24-1.146-.184-1.78-1.433-1.55-2.54.3-1.5 1.872-2.297 3.26-1.943 1.757.447 2.697 2.4 2.237 4.15-.56 2.118-2.824 3.24-4.83 2.648a4.17 4.17 0 0 1-1.251-.615"/><path d="M80.25-55.203c.275-.487 1.06-.562 1.58-.306.776.382.877 1.254.392 1.837-.652.783-2.015.872-2.918.334-1.143-.68-1.26-2.037-.426-2.93.452-.484 1.135-.802 1.87-.89" stroke-width=".802"/><path d="M89.46-18.287A19.58 19.58 0 0 1 78.84-30.01a19.58 19.58 0 0 1 1.703-15.726c3.007-5.133 8.505-8.727 14.414-9.42s12.1 1.53 16.202 5.83m2.553 3.496a18.46 18.46 0 0 1 3.751 10.867 18.46 18.46 0 0 1-3.467 10.961c-2.145 2.97-5.203 5.27-8.65 6.508s-7.27 1.4-10.815.484" class="K"/><g class="D"><path d="M106.28-45.075a4.42 4.42 0 0 0-5.616 2.197 4.42 4.42 0 0 0 1.922 5.716 4.4 4.4 0 0 0 4.743-.431 4.4 4.4 0 0 0 1.534-4.509"/><path d="M105.04-43.907a2.91 2.91 0 0 0-2.576 3.568 2.9 2.9 0 0 0 3.3 2.11 2.9 2.9 0 0 0 2.324-3.153"/></g></g><path d="M82.246-48.382c3.212 1.757 5.472 5.148 5.86 8.788.333 3.136-.667 6.318-2.362 8.977a18.4 18.4 0 0 1-4.725 5.008m-.76-2.08c2.76-1.578 4.8-4.36 5.48-7.465.477-2.182.283-4.543-.756-6.52a8.35 8.35 0 0 0-4.63-3.969m-1.084 2.6a9.7 9.7 0 0 1 3.402 4.63c.52 1.515.65 3.2.2 4.725a6.53 6.53 0 0 1-3.638 4.063m-.947-11.055a4.96 4.96 0 0 1 2.362 3.544c.128.93-.02 1.896-.42 2.746a4.9 4.9 0 0 1-1.85 2.073m32.083 12.142l-.283-.52a9.27 9.27 0 0 1 .094-8.379 9.27 9.27 0 0 1 6.899-4.756m-1.04 5.292c-.6-.235-1.3-.246-1.917-.032s-1.152.652-1.485 1.213a2.82 2.82 0 0 0 .709 3.638" class="D"/><g class="C"><path d="M117.208-31.94l-.7.283c-.912.362-1.836.722-2.646 1.276a6.46 6.46 0 0 0-2.362 2.977m.52 5.624c-.12-.15-.23-.308-.33-.472a4.61 4.61 0 0 1-.661-2.646" class="D"/><path d="M75.725-25.987a22.95 22.95 0 0 0 4.063 6.33 22.72 22.72 0 0 0 4.158 3.591m33.48-30.748a7.66 7.66 0 0 1 1.403 1.67c.943 1.52 1.33 3.376 1.07 5.145m-8.186 27.362a15.98 15.98 0 0 1-2.105 2.071 15.95 15.95 0 0 1-1.904 1.336M80.142-50.6a32.25 32.25 0 0 0-2.973 4.31 32.23 32.23 0 0 0-2.138 4.477" class="H"/><path d="M74.463-40.467a9.27 9.27 0 0 0-.367 1.27 9.28 9.28 0 0 0-.2 2.205m44.736 15.204a4.82 4.82 0 0 1 2.835-.047m-2.7-5.002c-.423.3-.755.74-.945 1.228-.186.478-.236 1.008-.142 1.512m-35.734-35.48a3.89 3.89 0 0 1 2.305-.601m13.8-1.07a4.16 4.16 0 0 1 2.873-.1m2.204 16.203a3.36 3.36 0 0 0-1.871-2.472m7.75 7.75a4.1 4.1 0 0 0 3.108.501m-12.028-1.47a6.74 6.74 0 0 1-1.036.1c-.493.01-.987-.035-1.47-.134m6.28 4.143c-.227.558-.32 1.17-.267 1.77.05.577.235 1.14.535 1.637m10.523.001a3.28 3.28 0 0 0-.267-1.069c-.197-.448-.496-.85-.87-1.17m-3.573 6.883h0l-.768-.535-.635-.735m1.17 7.885a2.12 2.12 0 0 1-1.169.568 2.11 2.11 0 0 1-1.047-.12 2.09 2.09 0 0 1-.857-.614" class="D"/><path d="M99.118-55.066a3.65 3.65 0 0 0 1.737 2.506 3.63 3.63 0 0 0 4.477-.702" class="H"/><path d="M99.486-54.064a3.37 3.37 0 0 1-2.105 1.102m6.22.706l.928 1.794M88.02-47.3a4.02 4.02 0 0 0-1.137.379 4.05 4.05 0 0 0-1.342 1.108m5.31 4.17a3.22 3.22 0 0 0-1.312-.321c-.555-.015-1.114.117-1.604.38M91.23-35.8a7.29 7.29 0 0 1-1.254.058c-.633-.025-1.262-.133-1.867-.32m-4.26 8.05a2.6 2.6 0 0 0 1.283 1.867c.544.304 1.2.4 1.808.262m-.554-5.687a3.19 3.19 0 0 0 2.887 1.662" class="D"/></g></g><g fill="red" class="I B D"><ellipse cx="91.754" cy="-29.689" rx=".379" ry=".394" paint-order="normal"/><ellipse cx="91.929" cy="-24.949" rx=".379" ry=".394" paint-order="normal"/><ellipse cx="104.179" cy="-22.091" rx=".379" ry=".394" paint-order="normal"/><ellipse cx="111.587" cy="-36.966" rx=".379" ry=".394" paint-order="normal"/><ellipse cx="92.746" cy="-41.807" rx=".379" ry=".394" paint-order="normal"/><ellipse cx="89.771" cy="-48.049" rx=".379" ry=".394" paint-order="normal"/></g><g class="E B"><g class="C"><path d="M91.404-66.132a4.94 4.94 0 0 1-1.225 3.733c-.726.808-1.73 1.362-2.8 1.546"/><path d="M95.283-61.378c-.952-.185-2.08-.516-2.683-.992-1.1-.797-1.196-3.762-1.196-3.762m-4.024 5.28s1.925.03 3.033.583c.58.627.554 3.937.554 3.937"/><path d="M95.283-61.378s-1.433.287-2.304.904c-1.167.827-2.012 4.142-2.012 4.142"/></g><path d="M115.757-10.534c.68-1.588 2.124-3.238 2.124-3.238.942.144 2.093.57 2.805.082.246-.996.772-1.547-1.35-1.838 0 0-1.132.716-.817-.43.776-1.175 1.876-1.93 1.94-3.114-2.017.137-2.862 1.238-3.733 1.63-1.242-.6-1.086-1.457-2.367-2.62.22 1.876.515 2.602.263 3.137-.753.548-1.254 1.493-1.853 1.686 1.063.42 1.805.48 3.507.58-.484.857-.44 1.307-.748 2.217-.1.936-.36 1.395.228 1.9z" class="G"/></g><ellipse cx="95.391" cy="-24.624" rx="1.712" ry="1.655" stroke-width=".552" paint-order="normal" class="B G I"/><path d="M43.62 27.813a1.47 1.47 0 0 1-.858.135c-.29-.043-.568-.177-.782-.38s-.365-.47-.426-.758-.032-.594.083-.865a1.56 1.56 0 0 1 .556-.673c.243-.167.53-.267.824-.3.587-.063 1.183.15 1.653.505a2.88 2.88 0 0 1 1.056 1.602 2.71 2.71 0 0 1-.239 1.898c-.33.613-.907 1.08-1.56 1.315s-1.38.25-2.056.085c-.737-.18-1.406-.565-2.057-.956s-1.303-.796-2.026-1.028c-.917-.294-1.927-.3-2.84.012a4.64 4.64 0 0 0-2.292 1.68m6.182 4.61c.563.732 1.324 1.3 2.18 1.657s1.805.46 2.72.326a5.3 5.3 0 0 0 2.91-1.444 5.39 5.39 0 0 0 1.522-2.873c.144-.793.107-1.607.173-2.4s.25-1.633.76-2.256a2.44 2.44 0 0 1 .969-.716 2.26 2.26 0 0 1 1.195-.138 2.11 2.11 0 0 1 1.084.518 1.98 1.98 0 0 1 .601 1.037 1.92 1.92 0 0 1-1.284 2.216M32.13 23.496c.713 2.333.814 4.85.292 7.233-.23 1.045-.582 2.076-1.172 2.968s-1.433 1.642-2.444 2a4.07 4.07 0 0 1-3.024-.164 4.07 4.07 0 0 1-2.051-2.227m12.54-.3a2.9 2.9 0 0 0-1.925-1.108c-.508-.064-1.032.01-1.502.216s-.882.536-1.182.95" class="C E F B"/><g class="G I B"><circle cx="39.538" cy="31.663" r=".3" paint-order="normal" class="J"/><circle cx="50.125" cy="30" r=".321" paint-order="normal" class="F"/><g class="J"><circle cx="29.68" cy="13.405" r=".3" paint-order="normal"/><circle cx="8.914" cy="32.771" r=".3" paint-order="normal"/></g></g><g class="C E K B"><path d="M5.647 18.888c-.284 1.26-1.203 2.357-2.392 2.858-.3.126-.62.217-.943.206a1.35 1.35 0 0 1-.473-.1 1.06 1.06 0 0 1-.392-.281.96.96 0 0 1-.149-1.009.96.96 0 0 1 .342-.406.96.96 0 0 1 .506-.16"/><path d="M2.147 19.997a.89.89 0 0 1-.797.084.89.89 0 0 1-.53-.601c-.036-.143-.035-.295-.003-.44a1.2 1.2 0 0 1 .176-.405c.164-.246.405-.433.663-.578a3.13 3.13 0 0 1 2.152-.334c.726.15 1.393.573 1.84 1.165"/></g><circle cx="9.276" cy="3.095" r=".3" paint-order="normal" class="B G I J"/><g class="E B"><g class="C F"><path d="M8.534 7.962a10.48 10.48 0 0 1 7.507-4.702 10.31 10.31 0 0 1 6.739 1.566 10.1 10.1 0 0 1 4.15 5.528c.538 1.802.547 3.763 0 5.562s-1.65 3.43-3.135 4.584c-1.335 1.038-2.97 1.687-4.653 1.846a9.03 9.03 0 0 1-4.917-.94M7.627 9.942a7.6 7.6 0 0 0-.73 4.023 7.59 7.59 0 0 0 1.474 3.814c.82 1.096 1.947 1.962 3.217 2.475m15.6-5.28a7.59 7.59 0 0 1 2.722 1.897 7.64 7.64 0 0 1 1.98 4.95m-16.083.217a2.8 2.8 0 0 1-1.442 1.428c-.637.273-1.377.294-2.03.06a2.8 2.8 0 0 1-1.581-1.463 2.8 2.8 0 0 1-.052-2.154"/><path d="M19.2 22.33a2.24 2.24 0 0 0 .997 1.524c.527.334 1.203.43 1.803.255a2.24 2.24 0 0 0 1.418-1.275 2.24 2.24 0 0 0-.106-1.904M16.8 22.242a23.74 23.74 0 0 0 .321 4.987M12.15 4.393v-.117c-.004-.643-.074-1.3.03-1.925a3.57 3.57 0 0 1 .817-1.75m11.637 5.63l1.458-2.567"/></g><path d="M21.455 10.634a5.28 5.28 0 0 0-1.837-3.471c-.742-.623-1.658-1.032-2.614-1.192s-1.95-.073-2.87.23c-1.422.467-2.664 1.455-3.454 2.726s-1.125 2.816-.95 4.303c.17 1.44.816 2.82 1.805 3.88s2.316 1.8 3.736 2.098c1.5.31 3.08.13 4.46-.513s2.54-1.75 3.24-3.103a6.93 6.93 0 0 0 .769-3.381 6.93 6.93 0 0 0-.973-3.328" class="C H"/><path d="M13.9 12.063a2.38 2.38 0 0 0-1.342-1.837 2.38 2.38 0 0 0-2.479.292m9.48 1.925c.063-.477.298-.93.65-1.256a2.11 2.11 0 0 1 1.303-.552c.474-.026.955.116 1.34.395a2.17 2.17 0 0 1 .8 1.15" stroke-width="1.323" class="C"/><path d="M9.483 19.016a37.04 37.04 0 0 1-2.805 3.918l-1.036 1.34c-.31.472-.56.992-.655 1.55-.143.837.088 1.73.62 2.392" class="C F"/><path d="M6.142 24.09l.082.29c.26.86.635 1.692 1.196 2.392.646.806 1.533 1.416 2.516 1.732" class="C H"/><path d="M11.916 27.183a8.56 8.56 0 0 0-1.98 1.32c-.422.376-.827.805-1.36 1a1.73 1.73 0 0 1-1.691-.33m17.86-9.62a11.41 11.41 0 0 0 2.805 4.042l1.608 1.403c.518.487.993 1.04 1.28 1.7.283.644.37 1.378.206 2.062a3.03 3.03 0 0 1-1.279 1.815" class="F C"/><path d="M29.364 25.286a2.69 2.69 0 0 1-.247 2.516c-.28.41-.673.737-1.103.987s-.9.427-1.372.58a15.84 15.84 0 0 1-1.526.412" class="C H"/><path d="M28.25 31.184a4.62 4.62 0 0 1-2.186-.247A4.67 4.67 0 0 1 23.3 28.09m-11.96-.288l.206 5.733c.027 1.12.047 2.25.268 3.35s.658 2.18 1.423 3.002c.408.44.898.792 1.35 1.187s.873.85 1.085 1.4c.154.408.193.86.412 1.237.146.252.375.46.65.555a.99.99 0 0 0 .43.049.88.88 0 0 0 .405-.151.95.95 0 0 0 .325-.415 1.35 1.35 0 0 0 .097-.522c0-.356-.112-.702-.216-1.043-.2-.683-.396-1.392-.33-2.104.042-.453.198-.912.52-1.232a1.29 1.29 0 0 1 .584-.339c.22-.056.46-.045.67.045.284.122.493.374.652.64l.46.805c.266.377.642.66.993.958s.696.633.863 1.063c.093.24.126.5.17.754s.104.512.24.73c.188.3.514.498.86.567s.7.016 1.038-.113c.377-.148.714-.397.966-.713a2.31 2.31 0 0 0 .478-1.1c.1-.755-.16-1.508-.412-2.227l-.784-2.392a39.72 39.72 0 0 1-1.014-4.24" class="F C"/><path d="M11.916 37.247A10.72 10.72 0 0 0 15.917 37m1.65-6.435l.866 6.022" class="H C"/><path d="M23.3 28.1l.43 5.206" class="C F"/><path d="M24.208 35.68c-.83.3-1.686.546-2.557.7a14.47 14.47 0 0 1-3.217.206m-2.847 5.94a3.96 3.96 0 0 0 1.237 0 4.05 4.05 0 0 0 1.155-.37m7.54-1.773a4.01 4.01 0 0 1-1.439 1.439c-.537.313-1.148.497-1.768.535" class="H C"/><g stroke-width="1.573" class="C"><path d="M11.4 57.342c-.574 2.8-.943 5.642-1.103 8.495-.193 3.435-.083 6.88 0 10.32.027 1.104.05 2.21.222 3.302s.495 2.17 1.08 3.107c.71 1.13 1.777 2.006 2.957 2.627s2.474 1 3.777 1.283c4.66 1.006 9.498.8 14.23.217 1.287-.156 2.588-.342 3.785-.84s2.296-1.35 2.84-2.526c.375-.8.467-1.718.543-2.607.322-3.756.457-7.527.434-11.297-.017-2.824-.122-5.65 0-8.472.05-1.13.13-2.29-.217-3.367-.18-.56-.478-1.086-.887-1.51a3.16 3.16 0 0 0-1.503-.881c-.63-.154-1.3-.087-1.897.187s-1.076.753-1.362 1.334"/><path d="M32.07 57.65c-.97.722-2.067 1.27-3.226 1.613-1.783.526-3.674.557-5.53.46-4.056-.21-8.08-1.015-11.905-2.38"/></g><path d="M37.524 55.422c.444.187.816.54 1.025.973a2.02 2.02 0 0 1 .127 1.408c-.13.47-.433.882-.806 1.198s-.814.542-1.268.722c-1.762.7-3.71.726-5.607.69l-8.756-.538" stroke-width="1.584" class="C"/><path d="M48.123 62.795l2.6-2.15m-2.84 10.983l3.687.23m-5.146 10.83a11.94 11.94 0 0 1 2.535 2.995M5.726 61.566a6.19 6.19 0 0 1-2.458-.384 6.19 6.19 0 0 1-1.92-1.152m2.92 11.75l-3.917.077m6.067 12.367l-2.765 3.072" stroke-width="1.747" class="C"/><g class="L"><path d="M24.083 65.867a16.3 16.3 0 0 0 0 2.535c.03.39.077.79.24 1.147a1.56 1.56 0 0 0 .332.483 1.15 1.15 0 0 0 .505.29c.188.048.386.042.578.017l.574-.093c.422-.054.85-.015 1.275-.001s.862 0 1.26-.152c.502-.192.908-.597 1.152-1.075.224-.438.32-.936.3-1.427s-.158-.974-.375-1.415c-.58-1.177-1.685-1.99-2.61-2.92-.096-.097-.192-.196-.306-.27a.61.61 0 0 0-.385-.113c-.14.013-.268.093-.367.194s-.173.223-.247.343a14.79 14.79 0 0 1-1.92 2.458z" class="G"/><g class="C"><path d="M29.766 65.867h-5.684M20.78 76.083a9.3 9.3 0 0 1-1.075 3.072 9.32 9.32 0 0 1-2.688 2.995"/><path d="M16.172 77.235a4.93 4.93 0 0 1 2.611 1.997c.344.532.587 1.132.998 1.613a2.93 2.93 0 0 0 1.92.998m5.84 2.38a2.71 2.71 0 0 1 .384-1.997c.12-.183.266-.354.45-.473s.4-.182.626-.142.405.183.56.343l.44.5c.27.272.63.463 1.013.502s.785-.08 1.06-.35a1.47 1.47 0 0 0 .382-.678c.07-.253.085-.52.078-.78l-.023-.923c.023-.307.115-.622.33-.843a1.06 1.06 0 0 1 .478-.276 1.42 1.42 0 0 1 .554-.034c.37.046.714.2 1.04.387.24.13.476.268.735.355s.544.118.802.03c.17-.06.324-.17.432-.315a.92.92 0 0 0 .046-1.022.91.91 0 0 0-.402-.353m1.997-16.205a7.6 7.6 0 0 1-.998 1.69c-.38.486-.82.926-1.306 1.306m-1.843 1.614a3.03 3.03 0 0 1-1.152.845c-.364.15-.758.23-1.152.23m7.604-.385a3.12 3.12 0 0 1-.614 1.459c-.268.348-.6.638-.998.845m-1.613 2.15l-1.92 1.92M32.224 75.7a6.14 6.14 0 0 1-1.459 1.152c-.48.273-1 .48-1.536.614m-2.074.834a3.89 3.89 0 0 1-3.072.998M15.02 58.8a4.28 4.28 0 0 0 .307 1.46c.168.417.402.808.7 1.152m2.613-2.072l1.613 2.38m-2.073 2.842c-.517-.017-1.024-.242-1.383-.614a2.03 2.03 0 0 1-.56-1.287m3.068 4.045a3.44 3.44 0 0 0 .733.842 3.47 3.47 0 0 0 2.145.788M14.5 66.108c-.37.87-.4 1.885-.054 2.77a4.52 4.52 0 0 0 .652 1.141 5.76 5.76 0 0 0 1.575 1.412m-2.23 5.865l.1-2.716c.017-.374.034-.75-.01-1.123s-.154-.743-.37-1.05c-.23-.323-.575-.562-.96-.66s-.802-.056-1.16.117"/><path d="M16.66 71.43a4.37 4.37 0 0 0-1.195.923 4.33 4.33 0 0 0-.815 1.303m-2.605-1.79a4.36 4.36 0 0 0 1.575-1.521 4.38 4.38 0 0 0 .597-2.824"/></g></g></g><g stroke-width=".645" class="G I B"><circle cx="14.108" cy="63.882" r=".702" paint-order="normal"/><circle cx="18.725" cy="71.811" r=".702" paint-order="normal"/><circle cx="14.977" cy="79.577" r=".702" paint-order="normal"/></g><g class="C E B"><path d="M32.9 86.638c1.322-.22 2.57-.856 3.53-1.792a6.63 6.63 0 0 0 1.303-1.792m.272-1.684a1.41 1.41 0 0 0 1.249-.109 1.4 1.4 0 0 0 .597-1.575" class="L"/><path d="M31.624 60.16l.326.054c.7.082 1.394-.043 2.043-.29s1.248-.6 1.813-1.015c.37-.265.733-.554.987-.93a1.84 1.84 0 0 0 .275-.62c.05-.222.05-.457-.013-.675-.07-.242-.218-.46-.416-.615s-.446-.245-.697-.254" stroke-width="1.049"/><path d="M90.85-9.882c-.862-.038-1.362-.923-1.24-1.69.184-1.146 1.433-1.78 2.54-1.55 1.5.3 2.297 1.872 1.943 3.26-.447 1.757-2.4 2.697-4.15 2.237-2.118-.56-3.24-2.824-2.648-4.83a4.17 4.17 0 0 1 .615-1.251"/></g><circle cx="73.439" cy="-20.032" r=".756"/></svg>