<?xml version="1.0" standalone="no"?>
<!DOCTYPE svg PUBLIC "-//W3C//DTD SVG 20010904//EN"
 "http://www.w3.org/TR/2001/REC-SVG-20010904/DTD/svg10.dtd">
<svg version="1.0" xmlns="http://www.w3.org/2000/svg"
 width="963.000000pt" height="1486.000000pt" viewBox="0 0 963.000000 1486.000000"
 preserveAspectRatio="xMidYMid meet">

<g transform="translate(0.000000,1486.000000) scale(0.100000,-0.100000)"
fill="#000000" stroke="none">
<path d="M105 14836 c-27 -13 -61 -36 -75 -50 -22 -25 -25 -36 -25 -109 0 -94
20 -143 79 -194 73 -65 153 -68 242 -8 63 41 73 61 81 164 l5 76 -56 53 c-91
86 -169 108 -251 68z"/>
<path d="M149 14301 c-19 -16 -47 -51 -62 -79 l-27 -50 10 -618 c10 -602 12
-625 40 -824 50 -350 64 -523 64 -810 1 -209 -3 -298 -19 -420 -27 -208 -27
-475 -1 -575 28 -108 38 -121 95 -135 58 -14 99 -7 136 21 l25 20 0 -135 c0
-74 -4 -137 -9 -140 -5 -3 -26 1 -47 10 -27 11 -60 15 -112 12 -84 -4 -93 -11
-118 -93 -55 -180 -4 -404 123 -534 l55 -56 -6 -65 c-4 -36 -19 -117 -34 -180
-36 -159 -37 -264 0 -342 57 -122 158 -240 216 -253 17 -3 37 -14 45 -23 27
-30 57 -120 78 -240 31 -175 52 -211 163 -274 l59 -33 22 -78 c32 -110 79
-200 124 -239 22 -18 89 -60 151 -93 61 -33 119 -67 129 -76 9 -9 63 -75 120
-148 102 -131 103 -132 97 -175 -7 -46 -41 -105 -118 -205 -102 -133 -84 -300
52 -502 83 -121 262 -277 373 -322 20 -9 37 -20 37 -25 0 -5 -14 -76 -30 -158
-38 -185 -60 -332 -60 -406 0 -117 48 -285 135 -465 250 -524 752 -897 1295
-962 52 -7 95 -13 96 -14 1 -1 -4 -27 -12 -57 -10 -37 -14 -84 -11 -145 8
-178 95 -358 252 -523 104 -110 210 -184 305 -213 l67 -20 11 -74 c23 -144 68
-202 227 -289 151 -83 145 -76 145 -154 0 -181 172 -338 412 -377 48 -7 56
-23 73 -136 36 -241 210 -431 542 -592 90 -43 127 -66 133 -83 5 -13 12 -65
16 -116 4 -51 11 -102 17 -113 6 -11 50 -72 98 -135 75 -97 101 -123 171 -170
98 -65 164 -123 184 -162 16 -31 33 -220 34 -364 l0 -90 83 -80 c107 -104 166
-148 399 -300 445 -289 641 -334 656 -150 4 50 2 56 -33 95 -62 69 -194 148
-408 245 -317 144 -447 240 -462 340 -9 56 1 120 18 112 122 -54 141 -59 214
-53 69 5 75 4 101 -20 81 -77 632 -458 755 -523 26 -14 47 -28 47 -31 0 -3
-40 -17 -89 -32 l-88 -27 -11 -82 c-10 -76 -9 -86 9 -115 16 -26 30 -34 72
-42 224 -45 828 -52 1049 -11 37 7 91 31 159 70 64 37 115 60 134 60 16 0 65
-12 107 -27 l78 -28 66 18 c140 36 292 133 413 263 127 136 186 298 163 443
-25 148 -125 276 -274 349 -110 54 -171 66 -304 60 -148 -6 -209 -33 -301
-132 -96 -104 -93 -97 -82 -196 5 -47 17 -102 26 -123 22 -50 92 -111 150
-131 134 -46 313 11 313 100 0 56 -83 115 -193 137 -76 16 -81 31 -35 102 39
58 72 69 181 62 52 -3 78 -11 114 -33 62 -39 84 -71 99 -145 33 -162 -58 -339
-213 -416 -53 -25 -68 -28 -163 -28 -118 0 -162 14 -304 95 -264 151 -618 536
-944 1026 -296 445 -449 822 -787 1928 -132 432 -134 443 -175 706 -49 317
-66 366 -335 995 -220 515 -356 782 -527 1038 -44 66 -86 134 -93 151 -30 75
-31 75 24 125 51 47 51 47 40 86 -14 50 -75 110 -129 126 -37 11 -44 10 -102
-19 l-61 -32 -161 95 c-89 53 -211 121 -273 152 -99 50 -118 56 -170 55 -32
-1 -89 -11 -128 -22 -101 -29 -158 -26 -222 10 -122 70 -143 226 -87 658 21
161 24 403 6 455 -15 41 -10 51 74 171 49 69 43 117 -23 177 -27 26 -30 27
-97 17 -66 -10 -70 -10 -88 13 -18 22 -42 71 -191 379 -91 188 -222 354 -557
710 -112 118 -233 248 -269 288 -43 49 -88 86 -131 110 -38 21 -124 90 -205
165 -127 117 -151 134 -265 192 -170 87 -754 456 -1015 643 -292 208 -530 421
-650 581 -182 241 -293 559 -415 1186 l-40 210 -11 500 c-11 495 -11 501 9
541 52 101 23 188 -82 248 -67 38 -87 39 -127 7z m236 -2978 c11 -24 19 -270
10 -261 -14 13 -34 140 -35 211 0 65 10 85 25 50z m705 -748 c85 -186 98 -403
47 -750 -14 -99 -38 -277 -52 -395 -28 -240 -72 -516 -85 -541 -12 -21 -92
-51 -127 -47 -53 6 -87 127 -88 313 0 126 1 134 42 255 112 335 172 683 189
1093 7 167 7 167 27 150 11 -10 32 -45 47 -78z m-386 -167 c15 -57 3 -221 -40
-578 -25 -198 -40 -260 -63 -260 -14 0 -18 31 -42 311 l-22 266 30 54 c16 30
47 81 67 114 20 33 40 72 43 88 7 33 19 35 27 5z m745 -244 c34 -90 44 -207
38 -478 -4 -240 -6 -258 -40 -416 -45 -215 -52 -263 -77 -525 -30 -326 -57
-495 -86 -525 -12 -12 -16 -12 -29 5 -82 107 -118 190 -130 302 -6 53 -4 63
23 110 70 119 133 317 172 548 38 225 52 395 57 738 l6 338 23 -22 c13 -12 33
-46 43 -75z m577 -116 c65 -54 104 -100 257 -300 67 -88 171 -224 230 -301
331 -433 512 -782 608 -1172 45 -184 53 -332 40 -710 -27 -734 -11 -980 72
-1138 28 -54 71 -101 86 -94 3 2 54 25 113 53 l108 49 0 240 c0 164 -5 273
-16 345 -12 82 -16 226 -19 660 l-3 555 -41 160 c-48 185 -111 375 -210 630
-49 124 -67 183 -60 190 24 23 256 -253 368 -439 129 -213 276 -577 311 -770
17 -91 7 -221 -26 -361 -34 -143 -41 -290 -20 -410 33 -190 116 -386 202 -472
81 -81 107 -87 424 -87 254 -1 267 -2 310 -23 121 -61 336 -261 471 -438 201
-264 375 -608 479 -945 18 -58 52 -144 76 -192 52 -104 72 -174 55 -191 -19
-18 -76 54 -180 228 -227 379 -598 770 -924 972 -126 77 -226 123 -423 192
-93 32 -216 76 -274 97 -97 35 -113 38 -215 39 -71 0 -118 -4 -132 -13 -26
-14 -63 -122 -63 -181 l0 -38 183 -72 c196 -79 491 -218 640 -302 372 -212
666 -459 869 -731 79 -106 124 -182 223 -373 49 -94 138 -255 198 -358 127
-219 201 -370 251 -515 20 -57 36 -106 36 -108 0 -15 -75 39 -139 100 -123
116 -193 158 -386 226 -174 61 -556 140 -750 155 -104 8 -181 -12 -385 -100
-337 -147 -414 -155 -576 -64 -100 56 -179 173 -205 301 l-11 56 83 146 83
145 96 41 c121 51 161 88 167 157 10 104 -43 186 -170 261 l-56 34 -61 -16
c-34 -9 -119 -43 -188 -75 -172 -80 -227 -96 -337 -95 -108 1 -201 29 -344
105 -331 174 -628 466 -757 744 -101 219 -96 464 13 652 36 61 118 132 230
198 196 116 190 111 202 165 6 26 13 84 17 127 l7 79 -48 42 c-54 48 -106 65
-164 56 -32 -5 -61 -24 -132 -86 -108 -93 -152 -118 -225 -125 -78 -8 -147 28
-251 132 -196 195 -184 309 61 585 131 147 174 236 236 486 76 303 105 602 97
991 -7 377 -38 561 -124 748 -43 93 -67 195 -47 195 5 0 32 -19 60 -42z m-251
-210 c32 -101 61 -280 76 -471 16 -201 7 -722 -15 -882 -30 -214 -75 -372
-129 -452 -18 -27 -28 -33 -59 -33 -56 0 -62 18 -66 215 -5 241 38 643 113
1048 19 103 25 170 25 274 0 189 11 393 21 387 5 -3 20 -41 34 -86z m3239
-6039 c335 -48 665 -162 867 -300 96 -65 262 -229 247 -244 -2 -2 -73 34 -158
81 -219 120 -212 119 -695 154 -77 5 -215 23 -306 40 -192 34 -174 36 -464
-37 -138 -34 -206 -46 -292 -50 l-112 -6 -46 49 -46 49 6 60 c3 32 8 62 13 66
4 4 70 12 147 18 215 18 368 56 490 120 56 29 65 31 135 26 41 -3 138 -15 214
-26z m146 -605 c85 -8 197 -21 247 -29 51 -8 127 -15 170 -15 l77 0 155 -92
c189 -110 332 -205 433 -287 89 -71 210 -199 205 -215 -12 -34 -144 19 -320
128 -49 30 -114 65 -145 77 -162 61 -607 209 -658 218 -33 6 -157 17 -277 26
-232 16 -326 32 -389 67 -58 33 -53 63 20 111 l57 38 135 -6 c74 -4 205 -13
290 -21z m55 -475 c22 -6 108 -43 190 -82 136 -65 157 -72 222 -75 68 -4 74
-6 97 -37 36 -46 91 -75 256 -135 126 -45 163 -64 285 -145 218 -145 453 -340
516 -427 l20 -28 -43 19 c-24 10 -124 58 -223 106 -408 197 -593 267 -929 351
-237 59 -314 87 -391 138 -109 73 -189 183 -183 253 3 34 6 38 53 54 60 21 78
22 130 8z m695 -949 c258 -53 494 -173 817 -417 102 -76 169 -135 200 -175 26
-33 67 -71 91 -85 47 -28 51 -49 7 -46 -44 3 -147 56 -296 153 -159 104 -244
146 -449 220 -255 92 -353 152 -453 275 -70 86 -74 95 -41 95 14 0 70 -9 124
-20z m1306 -775 c96 -11 116 -21 156 -79 30 -43 82 -87 259 -215 171 -124 216
-161 195 -161 -88 0 -604 341 -685 454 -13 17 -13 19 1 14 8 -4 41 -9 74 -13z"/>
<path d="M2898 6068 c-12 -9 -20 -39 -27 -103 l-10 -90 35 -53 c107 -162 329
-100 359 100 l7 47 -56 36 c-76 48 -126 65 -216 71 -55 4 -80 2 -92 -8z"/>
<path d="M4471 8766 c-55 -146 -46 -325 31 -609 19 -71 23 -79 57 -97 66 -33
156 -52 186 -38 34 15 39 41 32 157 -14 242 -120 561 -206 618 -56 38 -76 32
-100 -31z"/>
<path d="M224 8724 c-144 -245 -162 -737 -48 -1304 14 -69 32 -201 40 -295 13
-140 22 -189 50 -280 42 -131 46 -188 20 -345 -17 -104 -18 -142 -10 -390 11
-352 10 -688 -4 -765 -7 -42 -7 -119 0 -258 10 -186 9 -205 -11 -300 -83 -404
-103 -1095 -45 -1559 12 -99 15 -230 13 -683 -2 -581 2 -672 41 -866 56 -276
147 -481 297 -669 76 -94 133 -147 300 -277 70 -55 136 -109 145 -119 9 -11
31 -57 48 -104 19 -52 41 -94 57 -109 27 -23 30 -24 158 -17 130 6 130 6 193
-24 35 -16 104 -56 155 -89 51 -32 105 -62 120 -65 44 -10 123 18 227 80 88
53 94 55 107 38 14 -19 26 -61 38 -127 5 -34 12 -41 53 -58 26 -12 75 -28 109
-36 58 -15 66 -15 108 2 58 22 80 55 140 209 90 235 115 250 240 147 141 -117
161 -130 220 -146 77 -20 223 -20 299 0 126 33 251 124 329 239 10 14 21 26
25 26 4 0 23 -22 42 -47 76 -101 148 -169 210 -197 l60 -27 0 -49 0 -49 83
-26 c123 -40 568 -150 683 -170 97 -17 104 -17 155 -1 30 10 92 43 139 74 102
66 196 112 230 112 14 0 61 -9 105 -19 78 -19 80 -19 106 0 45 32 64 98 63
219 0 94 -4 116 -36 210 -20 58 -61 159 -91 225 -30 66 -78 185 -107 265 -97
269 -116 302 -298 505 -143 160 -164 188 -193 257 -29 72 -35 80 -86 109 -70
40 -81 53 -220 243 -64 87 -141 184 -172 215 -31 31 -135 113 -231 183 -214
154 -248 183 -530 469 -241 243 -219 225 -650 519 -257 175 -495 348 -657 476
-95 76 -131 114 -250 264 -151 190 -171 209 -373 352 -160 114 -229 180 -320
308 -462 651 -778 1691 -885 2910 -20 236 -35 525 -35 697 l0 142 -47 6 c-27
4 -56 9 -65 11 -12 4 -25 -9 -44 -42z m497 -3305 c11 -22 31 -81 44 -132 38
-146 42 -154 213 -397 150 -213 247 -303 507 -477 66 -44 138 -100 160 -124
23 -24 70 -95 105 -158 110 -195 207 -281 609 -545 196 -129 236 -160 314
-242 96 -101 119 -116 256 -169 118 -45 137 -58 216 -148 40 -46 146 -140 260
-232 381 -306 708 -611 945 -881 57 -65 172 -189 255 -274 171 -177 240 -264
291 -367 36 -72 56 -163 36 -163 -25 0 -102 73 -172 162 -69 88 -104 119 -424
374 -444 352 -608 476 -931 704 -374 264 -394 280 -465 362 -36 41 -79 85 -96
97 -17 12 -129 60 -249 106 -235 91 -301 127 -485 266 -299 225 -542 494 -805
889 -347 521 -595 1054 -622 1334 -7 78 3 82 38 15z m-159 -482 c32 -63 55
-174 94 -440 52 -360 62 -393 207 -630 81 -133 175 -324 350 -707 177 -391
221 -460 516 -814 268 -322 390 -536 500 -881 91 -285 124 -535 122 -917 l-1
-78 -30 0 c-62 0 -90 64 -72 167 l10 58 -63 70 c-136 154 -225 290 -415 640
-164 304 -203 365 -341 537 -120 151 -137 178 -231 365 -92 183 -109 212 -185
295 -126 141 -130 149 -159 289 -24 114 -33 138 -115 295 l-89 171 0 86 0 86
-65 108 -66 108 3 95 c2 68 -4 129 -21 215 -22 113 -24 143 -25 525 0 223 3
411 7 418 12 18 42 -10 69 -61z m1298 -1917 c114 -97 242 -176 506 -313 412
-213 492 -278 687 -562 33 -49 135 -188 224 -308 252 -337 366 -515 468 -730
59 -125 128 -304 123 -319 -12 -34 -363 297 -626 590 -126 140 -170 181 -302
282 -86 64 -162 125 -170 135 -8 10 -125 118 -260 239 -277 250 -451 422 -539
534 -33 43 -98 127 -145 187 -301 385 -376 509 -376 617 l0 42 168 -165 c92
-91 201 -194 242 -229z m-1321 -139 c7 -5 24 -49 37 -99 48 -187 142 -380 344
-707 156 -252 238 -416 291 -576 l42 -126 -20 -272 c-11 -149 -23 -274 -26
-277 -2 -3 -21 -8 -41 -11 -106 -17 -375 202 -493 402 -81 137 -137 317 -170
545 -15 102 -25 528 -25 1005 0 104 20 142 61 116z m1974 -1195 c107 -124 214
-282 232 -345 7 -22 5 -23 -21 -17 -74 18 -165 101 -232 211 -31 50 -83 176
-96 228 l-7 29 32 -19 c17 -10 59 -49 92 -87z m1397 -85 c25 -19 117 -105 206
-191 96 -93 184 -169 220 -189 122 -70 117 -64 80 -108 l-24 -27 -43 28 c-157
103 -438 377 -490 478 -35 69 -26 71 51 9z m-2300 -361 c62 -123 63 -133 13
-124 -21 3 -42 10 -47 15 -8 7 -54 175 -56 202 0 4 9 7 20 7 15 0 32 -24 70
-100z m1450 -122 c11 -25 20 -65 20 -95 0 -51 -1 -53 -26 -53 -35 0 -203 40
-208 49 -11 16 29 53 102 96 42 25 80 45 85 45 4 0 17 -19 27 -42z m-1241
-237 c18 -60 14 -72 -45 -134 -50 -54 -57 -58 -87 -52 -39 9 -54 20 -73 57
-14 27 -13 29 10 37 43 17 93 70 115 122 l22 51 23 -21 c13 -12 28 -39 35 -60z
m1535 15 c18 -19 46 -60 62 -92 l28 -57 -30 -24 c-190 -156 -367 -180 -479
-63 l-29 30 66 0 c79 0 175 28 224 65 39 30 80 89 90 132 13 55 21 56 68 9z
m1349 -22 c28 -40 29 -43 17 -100 -16 -78 -28 -95 -89 -123 l-51 -25 -58 40
c-32 22 -72 61 -90 89 l-34 50 34 8 c72 19 121 41 161 73 23 18 51 32 62 31
10 -1 32 -21 48 -43z m-2745 -223 c11 -7 11 -19 1 -70 -6 -34 -18 -68 -25 -75
-29 -29 -257 -27 -286 2 -14 14 24 32 122 57 77 20 107 35 139 69 27 29 30 30
49 17z m3040 -11 c39 -24 62 -73 61 -132 0 -41 -5 -47 -79 -116 l-80 -74 -92
12 c-120 16 -129 21 -86 48 61 38 137 128 175 207 39 82 48 87 101 55z"/>
<path d="M812 1456 c-36 -42 -56 -104 -47 -149 9 -44 47 -100 89 -132 29 -22
41 -25 68 -20 70 16 97 36 117 89 11 28 24 64 30 79 10 25 7 32 -31 73 -48 52
-94 78 -154 88 -38 7 -43 5 -72 -28z"/>
<path d="M4961 8594 c-46 -42 -51 -50 -51 -89 0 -42 1 -43 50 -64 138 -59 207
-32 225 91 7 46 6 47 -31 71 -22 14 -62 28 -90 31 -50 6 -52 5 -103 -40z"/>
<path d="M5574 8426 c-271 -157 -506 -336 -550 -418 -31 -60 3 -178 51 -178
85 0 279 78 415 168 166 108 277 225 287 302 6 46 -23 147 -46 159 -47 24 -66
20 -157 -33z"/>
<path d="M738 7983 c-51 -4 -60 -8 -89 -41 -18 -20 -44 -61 -58 -92 -23 -49
-26 -67 -26 -165 0 -98 3 -116 26 -166 51 -108 126 -167 243 -190 54 -11 58
-11 98 16 67 44 153 136 182 194 50 99 35 190 -56 331 -74 114 -108 126 -320
113z"/>
<path d="M4745 7773 c-33 -14 -87 -31 -120 -37 -47 -9 -67 -19 -96 -47 -49
-49 -80 -135 -82 -224 -2 -91 17 -156 62 -206 30 -34 44 -42 83 -46 89 -10
204 70 311 215 l47 64 -7 106 c-6 113 -19 153 -56 176 -40 26 -79 25 -142 -1z"/>
<path d="M5496 7694 c-50 -81 -62 -118 -52 -159 9 -35 71 -72 133 -78 50 -6
54 -5 78 27 32 42 55 98 55 133 0 15 -11 51 -24 79 -22 48 -27 52 -68 59 -23
3 -50 8 -59 11 -11 3 -30 -18 -63 -72z"/>
<path d="M5065 7443 c-45 -23 -66 -45 -82 -81 -13 -31 -12 -35 16 -76 144
-209 598 -412 798 -357 51 14 57 29 51 133 -4 68 -5 72 -43 106 -78 68 -391
205 -609 267 -103 29 -93 29 -131 8z"/>
<path d="M978 6813 c-10 -2 -58 -52 -108 -110 -90 -104 -91 -106 -85 -147 4
-23 25 -88 48 -145 l42 -104 50 -20 c35 -14 74 -21 130 -21 71 -1 86 2 133 28
87 49 137 137 149 262 l6 62 -53 56 c-67 71 -130 111 -205 131 -60 15 -76 16
-107 8z"/>
<path d="M1350 5614 c-110 -74 -139 -119 -140 -216 l0 -56 63 -48 c82 -62 120
-77 193 -77 86 1 114 17 142 83 33 79 27 181 -14 247 -31 50 -89 87 -154 98
-29 5 -44 0 -90 -31z"/>
<path d="M2243 4674 c-70 -34 -93 -56 -126 -120 l-16 -32 54 -70 c30 -38 65
-72 77 -76 30 -8 157 -8 196 0 26 5 32 13 41 51 7 25 12 74 12 109 1 77 -20
119 -71 145 -64 32 -89 31 -167 -7z"/>
<path d="M3021 3883 c-7 -14 -15 -54 -18 -89 l-6 -62 54 -36 54 -35 60 12 c55
11 60 15 73 49 20 51 8 102 -31 143 -29 30 -39 34 -103 39 -69 6 -71 5 -83
-21z"/>
<path d="M8383 1649 c-35 -22 -63 -91 -63 -156 0 -34 44 -93 100 -133 l26 -19
77 51 c77 50 77 51 77 95 0 65 -29 114 -87 145 -70 37 -93 40 -130 17z"/>
<path d="M8948 1640 c-9 -5 -32 -32 -51 -58 -34 -46 -35 -50 -25 -95 9 -46 12
-49 78 -82 l69 -35 35 20 c41 25 106 106 106 133 0 32 -31 74 -71 96 -44 25
-117 36 -141 21z"/>
<path d="M9283 1417 c-57 -79 -57 -80 -24 -145 34 -68 43 -72 147 -72 l72 0
15 83 16 82 -42 41 c-36 36 -50 43 -98 48 l-56 6 -30 -43z"/>
<path d="M9449 1072 c-9 -4 -30 -23 -47 -43 -26 -30 -32 -45 -32 -83 0 -42 3
-48 43 -77 23 -17 57 -38 74 -45 31 -13 36 -12 83 17 l50 31 0 59 c0 51 -4 63
-30 92 -20 23 -45 38 -74 46 -25 6 -46 11 -48 10 -2 0 -10 -3 -19 -7z"/>
<path d="M9245 451 c-80 -36 -81 -108 -2 -176 38 -33 45 -35 87 -29 55 8 87
35 101 87 9 35 8 44 -9 66 -43 58 -117 80 -177 52z"/>
</g>
</svg>
